<?xml version="1.0" standalone="no"?>
 <!DOCTYPE svg PUBLIC "-//W3C//DTD SVG 1.1//EN" 
 "http://www.w3.org/Graphics/SVG/1.1/DTD/svg11.dtd"> 
<svg
  xmlns:svg="http://www.w3.org/2000/svg"
  xmlns="http://www.w3.org/2000/svg"
  xmlns:xlink="http://www.w3.org/1999/xlink"
  version="1.1"
  width="29.700220cm" height="21.000720cm" viewBox="0 0 297002 210007">
<title>SVG Picture created as hot_table_hmi-F_Mask.svg date 2025/03/13 22:03:08 </title>
  <desc>Picture generated by PCBNEW </desc>
<g style="fill:#000000; fill-opacity:1.000000;stroke:#000000; stroke-opacity:1.000000;
stroke-linecap:round; stroke-linejoin:round;"
 transform="translate(0 0) scale(1 1)">
</g>
<g style="fill:#000000; fill-opacity:0.0; 
stroke:#000000; stroke-width:0.000000; stroke-opacity:1; 
stroke-linecap:round; stroke-linejoin:round;">
<g >
</g>
<g style="fill:#000000; fill-opacity:0.0; 
stroke:#000000; stroke-width:0.001000; stroke-opacity:1; 
stroke-linecap:round; stroke-linejoin:round;">
</g>
<g style="fill:#000000; fill-opacity:1.0; 
stroke:#000000; stroke-width:0.001000; stroke-opacity:1; 
stroke-linecap:round; stroke-linejoin:round;">
<path style="fill:#000000; fill-opacity:1.0; 
stroke:#000000; stroke-width:0.001000; stroke-opacity:1; 
stroke-linecap:round; stroke-linejoin:round;fill-rule:evenodd;"
d="M 189214.700000,42650.000000
189233.730000,42745.671000
189287.923000,42826.777000
189369.029000,42880.970000
189464.700000,42900.000000
189989.700000,42900.000000
190085.371000,42880.970000
190166.477000,42826.777000
190220.670000,42745.671000
190239.700000,42650.000000
190239.700000,41750.000000
190220.670000,41654.329000
190166.477000,41573.223000
190085.371000,41519.030000
189989.700000,41500.000000
189464.700000,41500.000000
189369.029000,41519.030000
189287.923000,41573.223000
189233.730000,41654.329000
189214.700000,41750.000000
Z" /> 
<path style="fill:#000000; fill-opacity:1.0; 
stroke:#000000; stroke-width:0.001000; stroke-opacity:1; 
stroke-linecap:round; stroke-linejoin:round;fill-rule:evenodd;"
d="M 187389.700000,42650.000000
187408.730000,42745.671000
187462.923000,42826.777000
187544.029000,42880.970000
187639.700000,42900.000000
188164.700000,42900.000000
188260.371000,42880.970000
188341.477000,42826.777000
188395.670000,42745.671000
188414.700000,42650.000000
188414.700000,41750.000000
188395.670000,41654.329000
188341.477000,41573.223000
188260.371000,41519.030000
188164.700000,41500.000000
187639.700000,41500.000000
187544.029000,41519.030000
187462.923000,41573.223000
187408.730000,41654.329000
187389.700000,41750.000000
Z" /> 
</g>
<g >
</g>
<g style="fill:#000000; fill-opacity:1.0; 
stroke:#000000; stroke-width:0.001000; stroke-opacity:1; 
stroke-linecap:round; stroke-linejoin:round;">
<path style="fill:#000000; fill-opacity:1.0; 
stroke:#000000; stroke-width:0.001000; stroke-opacity:1; 
stroke-linecap:round; stroke-linejoin:round;fill-rule:evenodd;"
d="M 177389.700000,41775.000000
177370.670000,41679.329000
177316.477000,41598.223000
177235.371000,41544.030000
177139.700000,41525.000000
176514.700000,41525.000000
176419.029000,41544.030000
176337.923000,41598.223000
176283.730000,41679.329000
176264.700000,41775.000000
176264.700000,43025.000000
176283.730000,43120.671000
176337.923000,43201.777000
176419.029000,43255.970000
176514.700000,43275.000000
177139.700000,43275.000000
177235.371000,43255.970000
177316.477000,43201.777000
177370.670000,43120.671000
177389.700000,43025.000000
Z" /> 
<path style="fill:#000000; fill-opacity:1.0; 
stroke:#000000; stroke-width:0.001000; stroke-opacity:1; 
stroke-linecap:round; stroke-linejoin:round;fill-rule:evenodd;"
d="M 174464.700000,41775.000000
174445.670000,41679.329000
174391.477000,41598.223000
174310.371000,41544.030000
174214.700000,41525.000000
173589.700000,41525.000000
173494.029000,41544.030000
173412.923000,41598.223000
173358.730000,41679.329000
173339.700000,41775.000000
173339.700000,43025.000000
173358.730000,43120.671000
173412.923000,43201.777000
173494.029000,43255.970000
173589.700000,43275.000000
174214.700000,43275.000000
174310.371000,43255.970000
174391.477000,43201.777000
174445.670000,43120.671000
174464.700000,43025.000000
Z" /> 
</g>
<g >
</g>
<g style="fill:#000000; fill-opacity:1.0; 
stroke:#000000; stroke-width:0.001000; stroke-opacity:1; 
stroke-linecap:round; stroke-linejoin:round;">
<path style="fill:#000000; fill-opacity:1.0; 
stroke:#000000; stroke-width:0.001000; stroke-opacity:1; 
stroke-linecap:round; stroke-linejoin:round;fill-rule:evenodd;"
d="M 186002.199000,38799.999000
186002.199000,37000.001000
184202.201000,37000.001000
184202.201000,38799.999000
Z" /> 
<circle cx="182562.200000" cy="37900.000000" r="900.000000" /> 
</g>
<g style="fill:#000000; fill-opacity:1.0; 
stroke:#000000; stroke-width:21.200000; stroke-opacity:1; 
stroke-linecap:round; stroke-linejoin:round;">
</g>
<g >
</g>
<g style="fill:#000000; fill-opacity:1.0; 
stroke:#000000; stroke-width:21.200000; stroke-opacity:1; 
stroke-linecap:round; stroke-linejoin:round;">
</g>
<g style="fill:#000000; fill-opacity:1.0; 
stroke:#000000; stroke-width:0.001000; stroke-opacity:1; 
stroke-linecap:round; stroke-linejoin:round;">
<circle cx="187862.200000" cy="37900.000000" r="900.000000" /> 
</g>
<g style="fill:#000000; fill-opacity:1.0; 
stroke:#000000; stroke-width:21.200000; stroke-opacity:1; 
stroke-linecap:round; stroke-linejoin:round;">
</g>
<g style="fill:#000000; fill-opacity:1.0; 
stroke:#000000; stroke-width:0.001000; stroke-opacity:1; 
stroke-linecap:round; stroke-linejoin:round;">
<path style="fill:#000000; fill-opacity:1.0; 
stroke:#000000; stroke-width:0.001000; stroke-opacity:1; 
stroke-linecap:round; stroke-linejoin:round;fill-rule:evenodd;"
d="M 191302.199000,38799.999000
191302.199000,37000.001000
189502.201000,37000.001000
189502.201000,38799.999000
Z" /> 
</g>
<g >
</g>
<g style="fill:#000000; fill-opacity:1.0; 
stroke:#000000; stroke-width:0.001000; stroke-opacity:1; 
stroke-linecap:round; stroke-linejoin:round;">
<path style="fill:#000000; fill-opacity:1.0; 
stroke:#000000; stroke-width:0.001000; stroke-opacity:1; 
stroke-linecap:round; stroke-linejoin:round;fill-rule:evenodd;"
d="M 193739.700000,77450.000000
193720.670000,77354.329000
193666.477000,77273.223000
193585.371000,77219.030000
193489.700000,77200.000000
192964.700000,77200.000000
192869.029000,77219.030000
192787.923000,77273.223000
192733.730000,77354.329000
192714.700000,77450.000000
192714.700000,78350.000000
192733.730000,78445.671000
192787.923000,78526.777000
192869.029000,78580.970000
192964.700000,78600.000000
193489.700000,78600.000000
193585.371000,78580.970000
193666.477000,78526.777000
193720.670000,78445.671000
193739.700000,78350.000000
Z" /> 
<path style="fill:#000000; fill-opacity:1.0; 
stroke:#000000; stroke-width:0.001000; stroke-opacity:1; 
stroke-linecap:round; stroke-linejoin:round;fill-rule:evenodd;"
d="M 191914.700000,77450.000000
191895.670000,77354.329000
191841.477000,77273.223000
191760.371000,77219.030000
191664.700000,77200.000000
191139.700000,77200.000000
191044.029000,77219.030000
190962.923000,77273.223000
190908.730000,77354.329000
190889.700000,77450.000000
190889.700000,78350.000000
190908.730000,78445.671000
190962.923000,78526.777000
191044.029000,78580.970000
191139.700000,78600.000000
191664.700000,78600.000000
191760.371000,78580.970000
191841.477000,78526.777000
191895.670000,78445.671000
191914.700000,78350.000000
Z" /> 
</g>
<g >
</g>
<g style="fill:#000000; fill-opacity:1.0; 
stroke:#000000; stroke-width:0.001000; stroke-opacity:1; 
stroke-linecap:round; stroke-linejoin:round;">
<path style="fill:#000000; fill-opacity:1.0; 
stroke:#000000; stroke-width:0.001000; stroke-opacity:1; 
stroke-linecap:round; stroke-linejoin:round;fill-rule:evenodd;"
d="M 184002.200000,77342.343000
183983.170000,77246.672000
183928.977000,77165.566000
183847.871000,77111.373000
183752.200000,77092.343000
183252.200000,77092.343000
183156.529000,77111.373000
183075.423000,77165.566000
183021.230000,77246.672000
183002.200000,77342.343000
183002.200000,78292.343000
183021.230000,78388.014000
183075.423000,78469.120000
183156.529000,78523.313000
183252.200000,78542.343000
183752.200000,78542.343000
183847.871000,78523.313000
183928.977000,78469.120000
183983.170000,78388.014000
184002.200000,78292.343000
Z" /> 
<path style="fill:#000000; fill-opacity:1.0; 
stroke:#000000; stroke-width:0.001000; stroke-opacity:1; 
stroke-linecap:round; stroke-linejoin:round;fill-rule:evenodd;"
d="M 182102.200000,77342.343000
182083.170000,77246.672000
182028.977000,77165.566000
181947.871000,77111.373000
181852.200000,77092.343000
181352.200000,77092.343000
181256.529000,77111.373000
181175.423000,77165.566000
181121.230000,77246.672000
181102.200000,77342.343000
181102.200000,78292.343000
181121.230000,78388.014000
181175.423000,78469.120000
181256.529000,78523.313000
181352.200000,78542.343000
181852.200000,78542.343000
181947.871000,78523.313000
182028.977000,78469.120000
182083.170000,78388.014000
182102.200000,78292.343000
Z" /> 
</g>
<g >
</g>
<g style="fill:#000000; fill-opacity:1.0; 
stroke:#000000; stroke-width:0.001000; stroke-opacity:1; 
stroke-linecap:round; stroke-linejoin:round;">
<path style="fill:#000000; fill-opacity:1.0; 
stroke:#000000; stroke-width:0.001000; stroke-opacity:1; 
stroke-linecap:round; stroke-linejoin:round;fill-rule:evenodd;"
d="M 186052.200000,73187.500000
185956.529000,73206.530000
185875.423000,73260.723000
185821.230000,73341.829000
185802.200000,73437.500000
185802.200000,73962.500000
185821.230000,74058.171000
185875.423000,74139.277000
185956.529000,74193.470000
186052.200000,74212.500000
186952.200000,74212.500000
187047.871000,74193.470000
187128.977000,74139.277000
187183.170000,74058.171000
187202.200000,73962.500000
187202.200000,73437.500000
187183.170000,73341.829000
187128.977000,73260.723000
187047.871000,73206.530000
186952.200000,73187.500000
Z" /> 
<path style="fill:#000000; fill-opacity:1.0; 
stroke:#000000; stroke-width:0.001000; stroke-opacity:1; 
stroke-linecap:round; stroke-linejoin:round;fill-rule:evenodd;"
d="M 186052.200000,75012.500000
185956.529000,75031.530000
185875.423000,75085.723000
185821.230000,75166.829000
185802.200000,75262.500000
185802.200000,75787.500000
185821.230000,75883.171000
185875.423000,75964.277000
185956.529000,76018.470000
186052.200000,76037.500000
186952.200000,76037.500000
187047.871000,76018.470000
187128.977000,75964.277000
187183.170000,75883.171000
187202.200000,75787.500000
187202.200000,75262.500000
187183.170000,75166.829000
187128.977000,75085.723000
187047.871000,75031.530000
186952.200000,75012.500000
Z" /> 
</g>
<g >
</g>
<g style="fill:#000000; fill-opacity:1.0; 
stroke:#000000; stroke-width:0.001000; stroke-opacity:1; 
stroke-linecap:round; stroke-linejoin:round;">
<path style="fill:#000000; fill-opacity:1.0; 
stroke:#000000; stroke-width:0.001000; stroke-opacity:1; 
stroke-linecap:round; stroke-linejoin:round;fill-rule:evenodd;"
d="M 177702.200000,78292.343000
177721.230000,78388.014000
177775.423000,78469.120000
177856.529000,78523.313000
177952.200000,78542.343000
178452.200000,78542.343000
178547.871000,78523.313000
178628.977000,78469.120000
178683.170000,78388.014000
178702.200000,78292.343000
178702.200000,77342.343000
178683.170000,77246.672000
178628.977000,77165.566000
178547.871000,77111.373000
178452.200000,77092.343000
177952.200000,77092.343000
177856.529000,77111.373000
177775.423000,77165.566000
177721.230000,77246.672000
177702.200000,77342.343000
Z" /> 
<path style="fill:#000000; fill-opacity:1.0; 
stroke:#000000; stroke-width:0.001000; stroke-opacity:1; 
stroke-linecap:round; stroke-linejoin:round;fill-rule:evenodd;"
d="M 179602.200000,78292.343000
179621.230000,78388.014000
179675.423000,78469.120000
179756.529000,78523.313000
179852.200000,78542.343000
180352.200000,78542.343000
180447.871000,78523.313000
180528.977000,78469.120000
180583.170000,78388.014000
180602.200000,78292.343000
180602.200000,77342.343000
180583.170000,77246.672000
180528.977000,77165.566000
180447.871000,77111.373000
180352.200000,77092.343000
179852.200000,77092.343000
179756.529000,77111.373000
179675.423000,77165.566000
179621.230000,77246.672000
179602.200000,77342.343000
Z" /> 
</g>
<g >
</g>
<g style="fill:#000000; fill-opacity:1.0; 
stroke:#000000; stroke-width:0.001000; stroke-opacity:1; 
stroke-linecap:round; stroke-linejoin:round;">
<path style="fill:#000000; fill-opacity:1.0; 
stroke:#000000; stroke-width:0.001000; stroke-opacity:1; 
stroke-linecap:round; stroke-linejoin:round;fill-rule:evenodd;"
d="M 177027.200000,79250.000000
177008.170000,79154.329000
176953.977000,79073.223000
176872.871000,79019.030000
176777.200000,79000.000000
176252.200000,79000.000000
176156.529000,79019.030000
176075.423000,79073.223000
176021.230000,79154.329000
176002.200000,79250.000000
176002.200000,80150.000000
176021.230000,80245.671000
176075.423000,80326.777000
176156.529000,80380.970000
176252.200000,80400.000000
176777.200000,80400.000000
176872.871000,80380.970000
176953.977000,80326.777000
177008.170000,80245.671000
177027.200000,80150.000000
Z" /> 
<path style="fill:#000000; fill-opacity:1.0; 
stroke:#000000; stroke-width:0.001000; stroke-opacity:1; 
stroke-linecap:round; stroke-linejoin:round;fill-rule:evenodd;"
d="M 175202.200000,79250.000000
175183.170000,79154.329000
175128.977000,79073.223000
175047.871000,79019.030000
174952.200000,79000.000000
174427.200000,79000.000000
174331.529000,79019.030000
174250.423000,79073.223000
174196.230000,79154.329000
174177.200000,79250.000000
174177.200000,80150.000000
174196.230000,80245.671000
174250.423000,80326.777000
174331.529000,80380.970000
174427.200000,80400.000000
174952.200000,80400.000000
175047.871000,80380.970000
175128.977000,80326.777000
175183.170000,80245.671000
175202.200000,80150.000000
Z" /> 
</g>
<g >
</g>
<g style="fill:#000000; fill-opacity:1.0; 
stroke:#000000; stroke-width:0.001000; stroke-opacity:1; 
stroke-linecap:round; stroke-linejoin:round;">
<path style="fill:#000000; fill-opacity:1.0; 
stroke:#000000; stroke-width:0.001000; stroke-opacity:1; 
stroke-linecap:round; stroke-linejoin:round;fill-rule:evenodd;"
d="M 174177.200000,78250.000000
174196.230000,78345.671000
174250.423000,78426.777000
174331.529000,78480.970000
174427.200000,78500.000000
174952.200000,78500.000000
175047.871000,78480.970000
175128.977000,78426.777000
175183.170000,78345.671000
175202.200000,78250.000000
175202.200000,77350.000000
175183.170000,77254.329000
175128.977000,77173.223000
175047.871000,77119.030000
174952.200000,77100.000000
174427.200000,77100.000000
174331.529000,77119.030000
174250.423000,77173.223000
174196.230000,77254.329000
174177.200000,77350.000000
Z" /> 
<path style="fill:#000000; fill-opacity:1.0; 
stroke:#000000; stroke-width:0.001000; stroke-opacity:1; 
stroke-linecap:round; stroke-linejoin:round;fill-rule:evenodd;"
d="M 176002.200000,78250.000000
176021.230000,78345.671000
176075.423000,78426.777000
176156.529000,78480.970000
176252.200000,78500.000000
176777.200000,78500.000000
176872.871000,78480.970000
176953.977000,78426.777000
177008.170000,78345.671000
177027.200000,78250.000000
177027.200000,77350.000000
177008.170000,77254.329000
176953.977000,77173.223000
176872.871000,77119.030000
176777.200000,77100.000000
176252.200000,77100.000000
176156.529000,77119.030000
176075.423000,77173.223000
176021.230000,77254.329000
176002.200000,77350.000000
Z" /> 
</g>
<g >
</g>
<g style="fill:#000000; fill-opacity:1.0; 
stroke:#000000; stroke-width:0.001000; stroke-opacity:1; 
stroke-linecap:round; stroke-linejoin:round;">
<path style="fill:#000000; fill-opacity:1.0; 
stroke:#000000; stroke-width:0.001000; stroke-opacity:1; 
stroke-linecap:round; stroke-linejoin:round;fill-rule:evenodd;"
d="M 194564.700000,77750.000000
194583.730000,77845.671000
194637.923000,77926.777000
194719.029000,77980.970000
194814.700000,78000.000000
195339.700000,78000.000000
195435.371000,77980.970000
195516.477000,77926.777000
195570.670000,77845.671000
195589.700000,77750.000000
195589.700000,76850.000000
195570.670000,76754.329000
195516.477000,76673.223000
195435.371000,76619.030000
195339.700000,76600.000000
194814.700000,76600.000000
194719.029000,76619.030000
194637.923000,76673.223000
194583.730000,76754.329000
194564.700000,76850.000000
Z" /> 
<path style="fill:#000000; fill-opacity:1.0; 
stroke:#000000; stroke-width:0.001000; stroke-opacity:1; 
stroke-linecap:round; stroke-linejoin:round;fill-rule:evenodd;"
d="M 196389.700000,77750.000000
196408.730000,77845.671000
196462.923000,77926.777000
196544.029000,77980.970000
196639.700000,78000.000000
197164.700000,78000.000000
197260.371000,77980.970000
197341.477000,77926.777000
197395.670000,77845.671000
197414.700000,77750.000000
197414.700000,76850.000000
197395.670000,76754.329000
197341.477000,76673.223000
197260.371000,76619.030000
197164.700000,76600.000000
196639.700000,76600.000000
196544.029000,76619.030000
196462.923000,76673.223000
196408.730000,76754.329000
196389.700000,76850.000000
Z" /> 
</g>
<g >
</g>
<g style="fill:#000000; fill-opacity:1.0; 
stroke:#000000; stroke-width:0.001000; stroke-opacity:1; 
stroke-linecap:round; stroke-linejoin:round;">
<path style="fill:#000000; fill-opacity:1.0; 
stroke:#000000; stroke-width:0.001000; stroke-opacity:1; 
stroke-linecap:round; stroke-linejoin:round;fill-rule:evenodd;"
d="M 175027.200000,67162.500000
175122.871000,67143.470000
175203.977000,67089.277000
175258.170000,67008.171000
175277.200000,66912.500000
175277.200000,66287.500000
175258.170000,66191.829000
175203.977000,66110.723000
175122.871000,66056.530000
175027.200000,66037.500000
173777.200000,66037.500000
173681.529000,66056.530000
173600.423000,66110.723000
173546.230000,66191.829000
173527.200000,66287.500000
173527.200000,66912.500000
173546.230000,67008.171000
173600.423000,67089.277000
173681.529000,67143.470000
173777.200000,67162.500000
Z" /> 
<path style="fill:#000000; fill-opacity:1.0; 
stroke:#000000; stroke-width:0.001000; stroke-opacity:1; 
stroke-linecap:round; stroke-linejoin:round;fill-rule:evenodd;"
d="M 175027.200000,64237.500000
175122.871000,64218.470000
175203.977000,64164.277000
175258.170000,64083.171000
175277.200000,63987.500000
175277.200000,63362.500000
175258.170000,63266.829000
175203.977000,63185.723000
175122.871000,63131.530000
175027.200000,63112.500000
173777.200000,63112.500000
173681.529000,63131.530000
173600.423000,63185.723000
173546.230000,63266.829000
173527.200000,63362.500000
173527.200000,63987.500000
173546.230000,64083.171000
173600.423000,64164.277000
173681.529000,64218.470000
173777.200000,64237.500000
Z" /> 
</g>
<g >
</g>
<g style="fill:#000000; fill-opacity:1.0; 
stroke:#000000; stroke-width:0.001000; stroke-opacity:1; 
stroke-linecap:round; stroke-linejoin:round;">
<path style="fill:#000000; fill-opacity:1.0; 
stroke:#000000; stroke-width:0.001000; stroke-opacity:1; 
stroke-linecap:round; stroke-linejoin:round;fill-rule:evenodd;"
d="M 196272.199000,80540.001000
194572.201000,80540.001000
194572.201000,83539.999000
196272.199000,83539.999000
Z" /> 
</g>
<g style="fill:#000000; fill-opacity:1.0; 
stroke:#000000; stroke-width:1700.000000; stroke-opacity:1; 
stroke-linecap:round; stroke-linejoin:round;">
</g>
<g style="fill:#000000; fill-opacity:0.0; 
stroke:#000000; stroke-width:1700.000000; stroke-opacity:1; 
stroke-linecap:round; stroke-linejoin:round;">
<path d="M192882 81390
L192882 82690
" />
<path d="M190342 81390
L190342 82690
" />
<path d="M187802 81390
L187802 82690
" />
<path d="M185262 81390
L185262 82690
" />
<path d="M182722 81390
L182722 82690
" />
<path d="M180182 81390
L180182 82690
" />
<path d="M177642 81390
L177642 82690
" />
</g>
<g >
</g>
<g style="fill:#000000; fill-opacity:0.0; 
stroke:#000000; stroke-width:1700.000000; stroke-opacity:1; 
stroke-linecap:round; stroke-linejoin:round;">
</g>
<g style="fill:#000000; fill-opacity:1.0; 
stroke:#000000; stroke-width:0.001000; stroke-opacity:1; 
stroke-linecap:round; stroke-linejoin:round;">
<circle cx="204742.200000" cy="75260.000000" r="1000.000000" /> 
</g>
<g style="fill:#000000; fill-opacity:1.0; 
stroke:#000000; stroke-width:21.200000; stroke-opacity:1; 
stroke-linecap:round; stroke-linejoin:round;">
</g>
<g style="fill:#000000; fill-opacity:1.0; 
stroke:#000000; stroke-width:0.001000; stroke-opacity:1; 
stroke-linecap:round; stroke-linejoin:round;">
<circle cx="198242.200000" cy="75260.000000" r="1000.000000" /> 
</g>
<g style="fill:#000000; fill-opacity:1.0; 
stroke:#000000; stroke-width:21.200000; stroke-opacity:1; 
stroke-linecap:round; stroke-linejoin:round;">
</g>
<g style="fill:#000000; fill-opacity:1.0; 
stroke:#000000; stroke-width:0.001000; stroke-opacity:1; 
stroke-linecap:round; stroke-linejoin:round;">
<circle cx="198242.200000" cy="70760.000000" r="1000.000000" /> 
</g>
<g style="fill:#000000; fill-opacity:1.0; 
stroke:#000000; stroke-width:21.200000; stroke-opacity:1; 
stroke-linecap:round; stroke-linejoin:round;">
</g>
<g style="fill:#000000; fill-opacity:1.0; 
stroke:#000000; stroke-width:0.001000; stroke-opacity:1; 
stroke-linecap:round; stroke-linejoin:round;">
<circle cx="204742.200000" cy="70760.000000" r="1000.000000" /> 
</g>
<g style="fill:#000000; fill-opacity:1.0; 
stroke:#000000; stroke-width:21.200000; stroke-opacity:1; 
stroke-linecap:round; stroke-linejoin:round;">
</g>
<g >
</g>
<g style="fill:#000000; fill-opacity:1.0; 
stroke:#000000; stroke-width:21.200000; stroke-opacity:1; 
stroke-linecap:round; stroke-linejoin:round;">
</g>
<g style="fill:#000000; fill-opacity:1.0; 
stroke:#000000; stroke-width:0.001000; stroke-opacity:1; 
stroke-linecap:round; stroke-linejoin:round;">
<circle cx="168262.200000" cy="75270.000000" r="1000.000000" /> 
</g>
<g style="fill:#000000; fill-opacity:1.0; 
stroke:#000000; stroke-width:21.200000; stroke-opacity:1; 
stroke-linecap:round; stroke-linejoin:round;">
</g>
<g style="fill:#000000; fill-opacity:1.0; 
stroke:#000000; stroke-width:0.001000; stroke-opacity:1; 
stroke-linecap:round; stroke-linejoin:round;">
<circle cx="174762.200000" cy="75270.000000" r="1000.000000" /> 
</g>
<g style="fill:#000000; fill-opacity:1.0; 
stroke:#000000; stroke-width:21.200000; stroke-opacity:1; 
stroke-linecap:round; stroke-linejoin:round;">
</g>
<g style="fill:#000000; fill-opacity:1.0; 
stroke:#000000; stroke-width:0.001000; stroke-opacity:1; 
stroke-linecap:round; stroke-linejoin:round;">
<circle cx="174762.200000" cy="70770.000000" r="1000.000000" /> 
</g>
<g style="fill:#000000; fill-opacity:1.0; 
stroke:#000000; stroke-width:21.200000; stroke-opacity:1; 
stroke-linecap:round; stroke-linejoin:round;">
</g>
<g style="fill:#000000; fill-opacity:1.0; 
stroke:#000000; stroke-width:0.001000; stroke-opacity:1; 
stroke-linecap:round; stroke-linejoin:round;">
<circle cx="168262.200000" cy="70770.000000" r="1000.000000" /> 
</g>
<g style="fill:#000000; fill-opacity:1.0; 
stroke:#000000; stroke-width:21.200000; stroke-opacity:1; 
stroke-linecap:round; stroke-linejoin:round;">
</g>
<g >
</g>
<g style="fill:#000000; fill-opacity:1.0; 
stroke:#000000; stroke-width:21.200000; stroke-opacity:1; 
stroke-linecap:round; stroke-linejoin:round;">
</g>
<g style="fill:#000000; fill-opacity:1.0; 
stroke:#000000; stroke-width:0.001000; stroke-opacity:1; 
stroke-linecap:round; stroke-linejoin:round;">
<path style="fill:#000000; fill-opacity:1.0; 
stroke:#000000; stroke-width:0.001000; stroke-opacity:1; 
stroke-linecap:round; stroke-linejoin:round;fill-rule:evenodd;"
d="M 178002.201000,69500.001000
178002.201000,71499.999000
180002.199000,71499.999000
180002.199000,69500.001000
Z" /> 
<circle cx="179002.200000" cy="75500.000000" r="1000.000000" /> 
</g>
<g style="fill:#000000; fill-opacity:1.0; 
stroke:#000000; stroke-width:21.200000; stroke-opacity:1; 
stroke-linecap:round; stroke-linejoin:round;">
</g>
<g style="fill:#000000; fill-opacity:1.0; 
stroke:#000000; stroke-width:0.001000; stroke-opacity:1; 
stroke-linecap:round; stroke-linejoin:round;">
<circle cx="179002.200000" cy="73000.000000" r="1000.000000" /> 
</g>
<g style="fill:#000000; fill-opacity:1.0; 
stroke:#000000; stroke-width:21.200000; stroke-opacity:1; 
stroke-linecap:round; stroke-linejoin:round;">
</g>
<g style="fill:#000000; fill-opacity:1.0; 
stroke:#000000; stroke-width:0.001000; stroke-opacity:1; 
stroke-linecap:round; stroke-linejoin:round;">
<path style="fill:#000000; fill-opacity:1.0; 
stroke:#000000; stroke-width:0.001000; stroke-opacity:1; 
stroke-linecap:round; stroke-linejoin:round;fill-rule:evenodd;"
d="M 184902.201000,77600.001000
184902.201000,79599.999000
188102.199000,79599.999000
188102.199000,77600.001000
Z" /> 
<path style="fill:#000000; fill-opacity:1.0; 
stroke:#000000; stroke-width:0.001000; stroke-opacity:1; 
stroke-linecap:round; stroke-linejoin:round;fill-rule:evenodd;"
d="M 184902.201000,66400.001000
184902.201000,68399.999000
188102.199000,68399.999000
188102.199000,66400.001000
Z" /> 
<circle cx="193502.200000" cy="75500.000000" r="1000.000000" /> 
</g>
<g style="fill:#000000; fill-opacity:1.0; 
stroke:#000000; stroke-width:21.200000; stroke-opacity:1; 
stroke-linecap:round; stroke-linejoin:round;">
</g>
<g style="fill:#000000; fill-opacity:1.0; 
stroke:#000000; stroke-width:0.001000; stroke-opacity:1; 
stroke-linecap:round; stroke-linejoin:round;">
<circle cx="193502.200000" cy="70500.000000" r="1000.000000" /> 
</g>
<g style="fill:#000000; fill-opacity:1.0; 
stroke:#000000; stroke-width:21.200000; stroke-opacity:1; 
stroke-linecap:round; stroke-linejoin:round;">
</g>
<g >
</g>
<g style="fill:#000000; fill-opacity:1.0; 
stroke:#000000; stroke-width:21.200000; stroke-opacity:1; 
stroke-linecap:round; stroke-linejoin:round;">
</g>
<g style="fill:#000000; fill-opacity:1.0; 
stroke:#000000; stroke-width:0.001000; stroke-opacity:1; 
stroke-linecap:round; stroke-linejoin:round;">
<path style="fill:#000000; fill-opacity:1.0; 
stroke:#000000; stroke-width:0.001000; stroke-opacity:1; 
stroke-linecap:round; stroke-linejoin:round;fill-rule:evenodd;"
d="M 202730.530000,42382.629000
202730.530000,44082.627000
204430.528000,44082.627000
204430.528000,42382.629000
Z" /> 
<circle cx="203580.529000" cy="45772.628000" r="850.000000" /> 
<circle cx="203580.529000" cy="48312.628000" r="850.000000" /> 
<circle cx="203580.529000" cy="50852.628000" r="850.000000" /> 
</g>
<g >
</g>
<g style="fill:#000000; fill-opacity:1.0; 
stroke:#000000; stroke-width:0.001000; stroke-opacity:1; 
stroke-linecap:round; stroke-linejoin:round;">
<circle cx="183262.200000" cy="75260.000000" r="1000.000000" /> 
</g>
<g style="fill:#000000; fill-opacity:1.0; 
stroke:#000000; stroke-width:21.200000; stroke-opacity:1; 
stroke-linecap:round; stroke-linejoin:round;">
</g>
<g style="fill:#000000; fill-opacity:1.0; 
stroke:#000000; stroke-width:0.001000; stroke-opacity:1; 
stroke-linecap:round; stroke-linejoin:round;">
<circle cx="189762.200000" cy="75260.000000" r="1000.000000" /> 
</g>
<g style="fill:#000000; fill-opacity:1.0; 
stroke:#000000; stroke-width:21.200000; stroke-opacity:1; 
stroke-linecap:round; stroke-linejoin:round;">
</g>
<g style="fill:#000000; fill-opacity:1.0; 
stroke:#000000; stroke-width:0.001000; stroke-opacity:1; 
stroke-linecap:round; stroke-linejoin:round;">
<circle cx="183262.200000" cy="70760.000000" r="1000.000000" /> 
</g>
<g style="fill:#000000; fill-opacity:1.0; 
stroke:#000000; stroke-width:21.200000; stroke-opacity:1; 
stroke-linecap:round; stroke-linejoin:round;">
</g>
<g style="fill:#000000; fill-opacity:1.0; 
stroke:#000000; stroke-width:0.001000; stroke-opacity:1; 
stroke-linecap:round; stroke-linejoin:round;">
<circle cx="189762.200000" cy="70760.000000" r="1000.000000" /> 
</g>
<g style="fill:#000000; fill-opacity:1.0; 
stroke:#000000; stroke-width:21.200000; stroke-opacity:1; 
stroke-linecap:round; stroke-linejoin:round;">
</g>
<g >
</g>
<g style="fill:#000000; fill-opacity:1.0; 
stroke:#000000; stroke-width:21.200000; stroke-opacity:1; 
stroke-linecap:round; stroke-linejoin:round;">
</g>
<g style="fill:#000000; fill-opacity:1.0; 
stroke:#000000; stroke-width:0.001000; stroke-opacity:1; 
stroke-linecap:round; stroke-linejoin:round;">
<circle cx="169602.200000" cy="81400.000000" r="1500.000000" /> 
</g>
<g style="fill:#000000; fill-opacity:1.0; 
stroke:#000000; stroke-width:21.200000; stroke-opacity:1; 
stroke-linecap:round; stroke-linejoin:round;">
</g>
<g style="fill:#000000; fill-opacity:1.0; 
stroke:#000000; stroke-width:0.001000; stroke-opacity:1; 
stroke-linecap:round; stroke-linejoin:round;">
<circle cx="203402.200000" cy="56600.000000" r="1500.000000" /> 
</g>
<g style="fill:#000000; fill-opacity:1.0; 
stroke:#000000; stroke-width:21.200000; stroke-opacity:1; 
stroke-linecap:round; stroke-linejoin:round;">
</g>
<g style="fill:#000000; fill-opacity:1.0; 
stroke:#000000; stroke-width:0.001000; stroke-opacity:1; 
stroke-linecap:round; stroke-linejoin:round;">
<circle cx="203402.200000" cy="81400.000000" r="1500.000000" /> 
</g>
<g style="fill:#000000; fill-opacity:1.0; 
stroke:#000000; stroke-width:21.200000; stroke-opacity:1; 
stroke-linecap:round; stroke-linejoin:round;">
</g>
<g style="fill:#000000; fill-opacity:1.0; 
stroke:#000000; stroke-width:0.001000; stroke-opacity:1; 
stroke-linecap:round; stroke-linejoin:round;">
<circle cx="169602.200000" cy="56600.000000" r="1500.000000" /> 
</g>
<g style="fill:#000000; fill-opacity:1.0; 
stroke:#000000; stroke-width:21.200000; stroke-opacity:1; 
stroke-linecap:round; stroke-linejoin:round;">
</g>
<g >
</g>
<g >
</g>
</g> 
</svg>
